<svg width="24" height="24" viewBox="0 0 24 24" fill="none" xmlns="http://www.w3.org/2000/svg">
<path d="M12.4956 15.8376C14.8948 15.8376 16.8398 13.8929 16.8398 11.494C16.8398 9.09516 14.8948 7.15048 12.4956 7.15048C10.0963 7.15048 8.15137 9.09516 8.15137 11.494C8.15137 13.8929 10.0963 15.8376 12.4956 15.8376Z" stroke="#3C3C3C" stroke-width="1.5" stroke-linecap="round" stroke-linejoin="round"/>
<path d="M3.09366 16.9332C2.61359 16.1065 2.24581 15.2195 2 14.2956L3.8224 12.0153C3.80177 11.6666 3.80177 11.3171 3.8224 10.9685L2.00109 8.68809C2.24647 7.76408 2.61351 6.87676 3.09257 6.04938L5.99343 5.72362C6.22508 5.46267 6.47205 5.21574 6.73304 4.98413L7.05885 2.0848C7.88517 1.60809 8.77118 1.2433 9.69363 1L11.9743 2.82212C12.323 2.80149 12.6726 2.80149 13.0213 2.82212L15.302 1.00109C16.2262 1.24643 17.1136 1.61341 17.9411 2.0924L18.267 4.99281C18.5279 5.22442 18.7749 5.47136 19.0066 5.7323L21.9063 6.05807C22.3864 6.88483 22.7542 7.77183 23 8.69569L21.1776 10.9761C21.1982 11.3247 21.1982 11.6742 21.1776 12.0229L22.9989 14.3032C22.7552 15.227 22.39 16.1143 21.9129 16.9419L19.012 17.2677C18.7803 17.5286 18.5334 17.7756 18.2724 18.0072L17.9466 20.9065C17.1197 21.3865 16.2325 21.7542 15.3085 22L13.0278 20.1779C12.6791 20.1985 12.3295 20.1985 11.9809 20.1779L9.70014 21.9989C8.77627 21.7553 7.88881 21.3901 7.06103 20.913L6.73521 18.0126C6.47422 17.781 6.22725 17.5341 5.9956 17.2731L3.09366 16.9332Z" stroke="#3C3C3C" stroke-width="1.3" stroke-linecap="round" stroke-linejoin="round"/>
</svg>
