<svg width="24" height="24" viewBox="0 0 24 24" fill="none" xmlns="http://www.w3.org/2000/svg">
<path d="M18 11.25H20.6569C20.8007 11.2513 20.9421 11.2135 21.066 11.1405C21.1899 11.0675 21.2915 10.9621 21.36 10.8356L23.1666 7.38469C23.2558 7.21247 23.273 7.0119 23.2145 6.82699C23.1559 6.64209 23.0264 6.48796 22.8544 6.39844L18 3.75" stroke="#3C3C3C" stroke-width="1.5" stroke-linecap="round" stroke-linejoin="round"/>
<path d="M5.99993 11.25H3.34306C3.19927 11.2513 3.05783 11.2135 2.93395 11.1405C2.81006 11.0675 2.70842 10.9621 2.63993 10.8356L0.83337 7.38469C0.744174 7.21247 0.726951 7.0119 0.78548 6.82699C0.84401 6.64209 0.97351 6.48796 1.14556 6.39844L5.99993 3.75" stroke="#3C3C3C" stroke-width="1.5" stroke-linecap="round" stroke-linejoin="round"/>
<path d="M15 3.75C15 4.54565 14.6839 5.30871 14.1213 5.87132C13.5587 6.43393 12.7956 6.75 12 6.75C11.2044 6.75 10.4413 6.43393 9.87868 5.87132C9.31607 5.30871 9 4.54565 9 3.75H6V19.5C6 19.6989 6.07902 19.8897 6.21967 20.0303C6.36032 20.171 6.55109 20.25 6.75 20.25H17.25C17.4489 20.25 17.6397 20.171 17.7803 20.0303C17.921 19.8897 18 19.6989 18 19.5V3.75H15Z" stroke="#3C3C3C" stroke-width="1.5" stroke-linecap="round" stroke-linejoin="round"/>
</svg>
